<mxfile host="app.diagrams.net" modified="2024-05-31T07:33:38.649Z" agent="Mozilla/5.0 (Windows NT 10.0; Win64; x64) AppleWebKit/537.36 (KHTML, like Gecko) Chrome/125.0.0.0 Safari/537.36" version="24.4.10" etag="vB4TsPyTnxP0flSDSE4M" type="github">
  <diagram name="Page-1" id="rl8AUeiRkTH-9D0mrp8m">
    <mxGraphModel>
      <root>
        <mxCell id="0" />
        <mxCell id="1" parent="0" />
      </root>
    </mxGraphModel>
  </diagram>
</mxfile>
